<svg version="1.1" id="Layer_1" xmlns="http://www.w3.org/2000/svg" xmlns:xlink="http://www.w3.org/1999/xlink" x="0px" y="0px"
	 width="100%" viewBox="0 0 839 142" enable-background="new 0 0 839 142" xml:space="preserve">
<path fill="transparent" opacity="1.000000" stroke="none" 
	d="
M622.000000,143.000000 
	C414.666656,143.000000 207.833328,143.000000 1.000000,143.000000 
	C1.000000,95.666664 1.000000,48.333332 1.000000,1.000000 
	C280.666656,1.000000 560.333313,1.000000 840.000000,1.000000 
	C840.000000,48.333332 840.000000,95.666664 840.000000,143.000000 
	C767.500000,143.000000 695.000000,143.000000 622.000000,143.000000 
M814.444153,65.938583 
	C822.426086,61.713459 830.408081,57.488335 838.554993,53.175896 
	C837.828003,52.381229 837.657898,52.065910 837.394531,51.925770 
	C812.570679,38.716217 787.775574,25.451771 762.885681,12.367789 
	C756.115784,8.809024 749.325867,9.344450 742.505066,13.043062 
	C719.912231,25.293964 697.205139,37.334053 674.546448,49.463562 
	C672.629456,50.489746 670.746521,51.579460 668.143860,53.032639 
	C675.826782,57.111889 682.506348,60.760227 689.282898,64.218643 
	C693.412292,66.326103 695.445618,69.385612 695.334351,74.122124 
	C695.083984,84.778381 695.285583,95.451279 694.762634,106.090828 
	C694.633118,108.725693 693.113464,112.311127 691.059143,113.626099 
	C686.390625,116.614494 686.498657,120.272789 687.364929,124.696899 
	C699.656128,122.162292 703.834351,117.859413 704.018250,107.667351 
	C704.099365,103.171341 704.066833,98.673134 704.071655,94.175919 
	C704.078857,87.476387 704.073547,80.776833 704.073547,73.394455 
	C706.612305,74.489555 708.287720,75.127235 709.888550,75.916328 
	C722.070740,81.921135 734.284851,87.864204 746.387573,94.025772 
	C751.216858,96.484390 755.683411,96.688499 760.549438,94.104836 
	C778.236145,84.713951 796.011475,75.490181 814.444153,65.938583 
M430.057648,83.497269 
	C430.057648,88.757545 430.057648,94.017822 430.057648,99.458710 
	C436.338165,99.458710 441.928223,99.458710 448.188171,99.458710 
	C448.188171,90.548500 448.188171,81.854279 448.188171,73.362869 
	C458.276764,73.362869 467.691803,73.362869 477.322815,73.362869 
	C477.322815,81.037796 477.201752,88.361313 477.431763,95.673790 
	C477.474335,97.027740 478.858032,99.426071 479.751221,99.487938 
	C485.008392,99.852097 490.303619,99.667091 495.755219,99.667091 
	C495.755219,75.544846 495.755219,51.979362 495.755219,28.380772 
	C489.488525,28.380772 483.461761,28.380772 477.070007,28.380772 
	C477.070007,37.358448 477.070007,45.953674 477.070007,54.601875 
	C467.162781,54.601875 457.638672,54.601875 447.830872,54.601875 
	C447.830872,45.602654 447.830872,36.994427 447.830872,28.304958 
	C441.815491,28.304958 436.097412,28.304958 430.059448,28.304958 
	C430.059448,46.576157 430.059448,64.537132 430.057648,83.497269 
M51.029270,83.099251 
	C36.002079,84.808128 24.949066,73.343582 28.183979,59.081257 
	C29.951149,51.290020 35.211590,46.496124 42.935314,44.570030 
	C50.904556,42.582710 57.016773,46.033001 62.627602,51.301010 
	C64.673012,53.221447 67.219666,55.399567 69.793037,55.794033 
	C74.505135,56.516342 79.407150,55.999718 84.270050,55.999718 
	C80.757690,35.477875 63.603649,25.483654 43.710217,26.369217 
	C22.609396,27.308529 6.896915,45.829269 8.256494,66.385483 
	C9.565409,86.175697 28.443415,102.805267 48.643929,101.962616 
	C67.189224,101.189003 84.869713,85.182922 84.671783,69.346542 
	C74.839752,68.038696 65.845634,68.478333 59.772732,78.318062 
	C58.347603,80.627151 54.581722,81.491570 51.029270,83.099251 
M171.744080,47.011204 
	C167.247757,46.525833 162.751419,46.040462 158.161011,45.544937 
	C158.161011,63.738548 158.161011,81.507309 158.161011,99.511536 
	C162.811829,99.511536 167.207230,99.511536 172.026382,99.511536 
	C172.026382,92.443306 171.685593,85.621445 172.145538,78.854012 
	C172.454819,74.303253 173.343567,69.601738 175.065933,65.417549 
	C175.924377,63.332157 179.337234,60.922077 181.412582,61.078228 
	C183.762527,61.255035 186.705688,63.707245 187.939224,65.963684 
	C189.445251,68.718597 189.893188,72.283783 190.001587,75.525200 
	C190.271820,83.605896 190.090607,91.701675 190.090607,99.673218 
	C195.289078,99.673218 199.537125,99.673218 204.005768,99.673218 
	C204.005768,96.032379 203.999893,92.716881 204.007019,89.401413 
	C204.020660,83.068596 203.902420,76.731308 204.105698,70.404457 
	C204.256363,65.715370 208.102402,61.121750 211.543579,60.992882 
	C214.623703,60.877533 219.299164,65.293861 219.912979,69.173096 
	C220.249283,71.298431 220.204117,73.494698 220.212555,75.659439 
	C220.243500,83.600868 220.224838,91.542496 220.224838,99.476395 
	C225.629684,99.476395 230.188385,99.476395 234.915695,99.476395 
	C234.915695,87.438103 235.265060,75.770531 234.816711,64.133698 
	C234.375168,52.673523 226.863754,46.424435 215.334198,45.868397 
	C207.901199,45.509922 202.322357,48.729408 197.324020,53.255459 
	C188.873825,46.889278 188.873825,46.888805 178.689468,46.994995 
	C176.691315,47.015827 174.693207,47.041805 171.744080,47.011204 
M608.939087,96.605865 
	C621.027344,89.136185 626.215393,75.809807 621.744934,63.712036 
	C617.547852,52.353916 604.096619,45.011787 591.164001,46.783939 
	C588.097046,47.204205 584.923462,46.846214 581.336304,46.846214 
	C581.336304,40.459419 581.336304,34.227257 581.336304,27.976358 
	C576.324097,27.976358 571.789124,27.976358 567.287598,27.976358 
	C567.287598,52.171055 567.287598,75.931305 567.287598,100.022675 
	C576.312866,100.022675 585.114197,100.365578 593.870667,99.887177 
	C598.710388,99.622772 603.474976,97.982040 608.939087,96.605865 
M289.095825,51.364059 
	C284.908325,49.568787 280.797180,46.486450 276.518250,46.232582 
	C265.959625,45.606144 255.323944,46.270523 244.719803,46.449436 
	C244.260498,46.457188 243.806778,46.797379 243.007141,47.122150 
	C243.007141,48.673321 243.006485,50.314964 243.007217,51.956604 
	C243.014984,69.116966 242.981369,86.277473 243.043396,103.437637 
	C243.097733,118.471458 241.104385,117.144859 257.144806,116.928696 
	C257.425201,116.924911 257.701508,116.618721 258.241638,116.298233 
	C258.241638,110.347336 258.241638,104.242172 258.241638,97.618484 
	C275.221802,101.049797 290.377350,100.027611 297.864197,81.456444 
	C302.073608,71.014908 298.805969,60.008633 289.095825,51.364059 
M140.747604,99.489700 
	C143.296570,99.832619 145.845520,100.175529 148.397186,100.518814 
	C148.397186,82.193718 148.397186,64.333145 148.397186,46.046291 
	C143.795959,46.277409 139.661942,46.564892 135.523346,46.666889 
	C132.388321,46.744152 129.174637,46.996857 126.122231,46.457260 
	C114.838066,44.462490 105.751343,48.239990 98.781898,56.913269 
	C92.028854,65.317238 91.127968,74.731148 95.977249,84.401779 
	C101.018227,94.454720 109.207535,99.953178 120.597046,99.958122 
	C127.034126,99.960907 133.471436,99.468048 140.747604,99.489700 
M511.047089,92.444641 
	C515.843628,94.912437 520.478760,99.021484 525.469788,99.512405 
	C536.459656,100.593399 547.629211,99.848030 558.805908,99.848030 
	C558.805908,81.886993 558.805908,64.305626 558.805908,46.581108 
	C553.184875,46.581108 547.808044,46.581108 542.000977,46.581108 
	C542.000977,55.916817 542.222229,64.895485 541.930420,73.857452 
	C541.700134,80.932297 538.010620,84.105484 531.142212,83.995758 
	C524.733887,83.893394 521.333252,80.550369 521.041565,73.649422 
	C520.823608,68.494194 520.957336,63.323875 520.945068,58.160248 
	C520.935791,54.246426 520.943298,50.332565 520.943298,46.417110 
	C514.880127,46.417110 509.625153,46.417110 503.976501,46.417110 
	C503.976501,55.316830 504.066620,63.946209 503.948822,72.572739 
	C503.849518,79.846703 505.874786,86.310585 511.047089,92.444641 
M789.257263,117.756081 
	C797.309692,109.495255 792.739136,99.476082 794.172729,89.306664 
	C791.337891,90.519463 789.660889,91.150414 788.059937,91.936256 
	C779.574524,96.101494 771.021301,100.140884 762.664795,104.552086 
	C756.723206,107.688553 751.233276,107.748566 745.243835,104.540939 
	C736.627380,99.926384 727.742188,95.811607 718.944885,91.538681 
	C717.410583,90.793449 715.744324,90.319870 713.566101,89.507042 
	C713.336548,94.273605 713.064758,98.226974 712.973816,102.184502 
	C712.817993,108.956505 715.766785,113.986946 721.738098,117.215157 
	C730.181641,121.779907 738.509277,126.585594 747.142822,130.757782 
	C750.064392,132.169662 754.298462,133.331573 757.015259,132.266830 
	C767.749573,128.060089 778.119690,122.924179 789.257263,117.756081 
M385.575226,81.142426 
	C380.679993,81.142426 375.784760,81.142426 370.933014,81.142426 
	C370.766815,88.918274 372.082001,92.822174 377.109497,95.403755 
	C389.457886,101.744598 402.305603,102.474098 414.730469,95.934448 
	C424.421326,90.833786 424.465515,79.838478 415.294952,73.920044 
	C412.947479,72.405045 410.392883,71.182724 407.851593,70.002014 
	C401.891815,67.233032 395.882568,64.570564 389.712250,61.783169 
	C395.540802,57.873848 397.927795,58.058594 402.568298,62.303337 
	C403.737122,63.372475 405.155975,64.795662 406.538940,64.889351 
	C411.275879,65.210258 416.047913,65.012444 420.888336,65.012444 
	C420.959351,58.187885 418.556335,53.297878 413.079773,50.376003 
	C401.972809,44.450146 390.584747,44.250523 379.219574,49.614243 
	C373.820435,52.162331 370.917511,56.490246 370.946381,62.680813 
	C370.975098,68.839340 374.399506,72.594421 379.581696,74.872040 
	C385.459808,77.455513 391.535614,79.586006 397.487030,82.007919 
	C399.158173,82.688019 400.694092,83.700554 402.680847,84.769890 
	C395.444794,89.415894 390.736847,85.962830 385.575226,81.142426 
M327.689056,81.966080 
	C326.460907,78.487976 324.466187,75.073952 324.168884,71.518028 
	C323.601746,64.734550 324.244507,57.855583 323.834717,51.049393 
	C323.729858,49.307877 321.769226,46.491295 320.311676,46.246048 
	C316.332458,45.576519 312.166687,46.015686 308.131409,46.015686 
	C307.997955,47.166325 307.891327,47.655216 307.891968,48.143963 
	C307.904297,57.473587 307.856293,66.804077 307.969574,76.132576 
	C308.120361,88.548012 317.147217,98.974358 329.648834,99.860878 
	C340.255005,100.612984 350.956848,100.016037 361.674377,100.016037 
	C361.674377,82.203590 361.674377,64.294662 361.674377,46.329960 
	C356.326141,46.329960 351.272247,46.329960 346.416595,46.329960 
	C345.948364,56.119873 345.506592,65.575645 345.039886,75.030182 
	C344.764404,80.610428 342.293152,83.654449 337.005615,83.867645 
	C334.164856,83.982170 331.274872,82.874809 327.689056,81.966080 
z"/>
<path fill="#001838" opacity="1.000000" stroke="none" 
	d="
M814.098755,66.070984 
	C796.011475,75.490181 778.236145,84.713951 760.549438,94.104836 
	C755.683411,96.688499 751.216858,96.484390 746.387573,94.025772 
	C734.284851,87.864204 722.070740,81.921135 709.888550,75.916328 
	C708.287720,75.127235 706.612305,74.489555 704.073547,73.394455 
	C704.073547,80.776833 704.078857,87.476387 704.071655,94.175919 
	C704.066833,98.673134 704.099365,103.171341 704.018250,107.667351 
	C703.834351,117.859413 699.656128,122.162292 687.364929,124.696899 
	C686.498657,120.272789 686.390625,116.614494 691.059143,113.626099 
	C693.113464,112.311127 694.633118,108.725693 694.762634,106.090828 
	C695.285583,95.451279 695.083984,84.778381 695.334351,74.122124 
	C695.445618,69.385612 693.412292,66.326103 689.282898,64.218643 
	C682.506348,60.760227 675.826782,57.111889 668.143860,53.032639 
	C670.746521,51.579460 672.629456,50.489746 674.546448,49.463562 
	C697.205139,37.334053 719.912231,25.293964 742.505066,13.043062 
	C749.325867,9.344450 756.115784,8.809024 762.885681,12.367789 
	C787.775574,25.451771 812.570679,38.716217 837.394531,51.925770 
	C837.657898,52.065910 837.828003,52.381229 838.554993,53.175896 
	C830.408081,57.488335 822.426086,61.713459 814.098755,66.070984 
z"/>
<path fill="#001838" opacity="1.000000" stroke="none" 
	d="
M430.058533,82.997696 
	C430.059448,64.537132 430.059448,46.576157 430.059448,28.304958 
	C436.097412,28.304958 441.815491,28.304958 447.830872,28.304958 
	C447.830872,36.994427 447.830872,45.602654 447.830872,54.601875 
	C457.638672,54.601875 467.162781,54.601875 477.070007,54.601875 
	C477.070007,45.953674 477.070007,37.358448 477.070007,28.380772 
	C483.461761,28.380772 489.488525,28.380772 495.755219,28.380772 
	C495.755219,51.979362 495.755219,75.544846 495.755219,99.667091 
	C490.303619,99.667091 485.008392,99.852097 479.751221,99.487938 
	C478.858032,99.426071 477.474335,97.027740 477.431763,95.673790 
	C477.201752,88.361313 477.322815,81.037796 477.322815,73.362869 
	C467.691803,73.362869 458.276764,73.362869 448.188171,73.362869 
	C448.188171,81.854279 448.188171,90.548500 448.188171,99.458710 
	C441.928223,99.458710 436.338165,99.458710 430.057648,99.458710 
	C430.057648,94.017822 430.057648,88.757545 430.058533,82.997696 
z"/>
<path fill="#001838" opacity="1.000000" stroke="none" 
	d="
M51.460999,83.059937 
	C54.581722,81.491570 58.347603,80.627151 59.772732,78.318062 
	C65.845634,68.478333 74.839752,68.038696 84.671806,69.346603 
	C84.869713,85.182922 67.189224,101.189003 48.643929,101.962616 
	C28.443415,102.805267 9.565409,86.175697 8.256494,66.385483 
	C6.896915,45.829269 22.609396,27.308529 43.710217,26.369217 
	C63.603649,25.483654 80.757690,35.477875 84.270050,55.999718 
	C79.407150,55.999718 74.505135,56.516342 69.793037,55.794033 
	C67.219666,55.399567 64.673012,53.221447 62.627602,51.301010 
	C57.016773,46.033001 50.904556,42.582710 42.935314,44.570030 
	C35.211590,46.496124 29.951149,51.290020 28.183979,59.081257 
	C24.949066,73.343582 36.002079,84.808128 51.460999,83.059937 
z"/>
<path fill="#001838" opacity="1.000000" stroke="none" 
	d="
M172.219574,47.038307 
	C174.693207,47.041805 176.691315,47.015827 178.689468,46.994995 
	C188.873825,46.888805 188.873825,46.889278 197.324020,53.255459 
	C202.322357,48.729408 207.901199,45.509922 215.334198,45.868397 
	C226.863754,46.424435 234.375168,52.673523 234.816711,64.133698 
	C235.265060,75.770531 234.915695,87.438103 234.915695,99.476395 
	C230.188385,99.476395 225.629684,99.476395 220.224838,99.476395 
	C220.224838,91.542496 220.243500,83.600868 220.212555,75.659439 
	C220.204117,73.494698 220.249283,71.298431 219.912979,69.173096 
	C219.299164,65.293861 214.623703,60.877533 211.543579,60.992882 
	C208.102402,61.121750 204.256363,65.715370 204.105698,70.404457 
	C203.902420,76.731308 204.020660,83.068596 204.007019,89.401413 
	C203.999893,92.716881 204.005768,96.032379 204.005768,99.673218 
	C199.537125,99.673218 195.289078,99.673218 190.090607,99.673218 
	C190.090607,91.701675 190.271820,83.605896 190.001587,75.525200 
	C189.893188,72.283783 189.445251,68.718597 187.939224,65.963684 
	C186.705688,63.707245 183.762527,61.255035 181.412582,61.078228 
	C179.337234,60.922077 175.924377,63.332157 175.065933,65.417549 
	C173.343567,69.601738 172.454819,74.303253 172.145538,78.854012 
	C171.685593,85.621445 172.026382,92.443306 172.026382,99.511536 
	C167.207230,99.511536 162.811829,99.511536 158.161011,99.511536 
	C158.161011,81.507309 158.161011,63.738548 158.161011,45.544937 
	C162.751419,46.040462 167.247757,46.525833 172.219574,47.038307 
z"/>
<path fill="#001838" opacity="1.000000" stroke="none" 
	d="
M608.606262,96.783798 
	C603.474976,97.982040 598.710388,99.622772 593.870667,99.887177 
	C585.114197,100.365578 576.312866,100.022675 567.287598,100.022675 
	C567.287598,75.931305 567.287598,52.171055 567.287598,27.976358 
	C571.789124,27.976358 576.324097,27.976358 581.336304,27.976358 
	C581.336304,34.227257 581.336304,40.459419 581.336304,46.846214 
	C584.923462,46.846214 588.097046,47.204205 591.164001,46.783939 
	C604.096619,45.011787 617.547852,52.353916 621.744934,63.712036 
	C626.215393,75.809807 621.027344,89.136185 608.606262,96.783798 
M598.513000,85.345055 
	C604.352783,83.216400 608.110657,78.302315 608.098877,72.809807 
	C608.086975,67.257820 604.357849,62.143532 599.028992,60.370960 
	C594.067200,58.720490 588.118591,60.549496 584.693726,64.778648 
	C581.519958,68.697739 580.823730,74.911888 583.402710,79.291306 
	C586.626465,84.765648 591.621765,86.681343 598.513000,85.345055 
z"/>
<path fill="#001838" opacity="1.000000" stroke="none" 
	d="
M289.368225,51.600288 
	C298.805969,60.008633 302.073608,71.014908 297.864197,81.456444 
	C290.377350,100.027611 275.221802,101.049797 258.241638,97.618484 
	C258.241638,104.242172 258.241638,110.347336 258.241638,116.298233 
	C257.701508,116.618721 257.425201,116.924911 257.144806,116.928696 
	C241.104385,117.144859 243.097733,118.471458 243.043396,103.437637 
	C242.981369,86.277473 243.014984,69.116966 243.007217,51.956604 
	C243.006485,50.314964 243.007141,48.673321 243.007141,47.122150 
	C243.806778,46.797379 244.260498,46.457188 244.719803,46.449436 
	C255.323944,46.270523 265.959625,45.606144 276.518250,46.232582 
	C280.797180,46.486450 284.908325,49.568787 289.368225,51.600288 
M258.166382,70.877136 
	C258.531158,73.153122 258.596893,75.529350 259.319641,77.685341 
	C261.126404,83.075203 268.533966,87.054451 273.775787,85.710236 
	C280.795044,83.910217 285.258087,78.020424 284.446869,71.627693 
	C283.480713,64.013954 279.292145,60.042492 272.184082,60.000477 
	C264.058960,59.952446 261.556000,61.801052 258.166382,70.877136 
z"/>
<path fill="#001838" opacity="1.000000" stroke="none" 
	d="
M140.328125,99.344070 
	C133.471436,99.468048 127.034126,99.960907 120.597046,99.958122 
	C109.207535,99.953178 101.018227,94.454720 95.977249,84.401779 
	C91.127968,74.731148 92.028854,65.317238 98.781898,56.913269 
	C105.751343,48.239990 114.838066,44.462490 126.122231,46.457260 
	C129.174637,46.996857 132.388321,46.744152 135.523346,46.666889 
	C139.661942,46.564892 143.795959,46.277409 148.397186,46.046291 
	C148.397186,64.333145 148.397186,82.193718 148.397186,100.518814 
	C145.845520,100.175529 143.296570,99.832619 140.328125,99.344070 
M112.621536,63.037457 
	C111.872757,63.919693 111.019051,64.733505 110.391983,65.695107 
	C105.811211,72.719643 107.774010,80.203682 115.176231,84.102051 
	C122.132225,87.765419 130.460342,84.862442 133.892517,77.578041 
	C136.893646,71.208473 133.236282,63.597511 125.896729,60.849567 
	C121.347130,59.146187 117.152931,59.746578 112.621536,63.037457 
z"/>
<path fill="#001838" opacity="1.000000" stroke="none" 
	d="
M510.807434,92.173668 
	C505.874786,86.310585 503.849518,79.846703 503.948822,72.572739 
	C504.066620,63.946209 503.976501,55.316830 503.976501,46.417110 
	C509.625153,46.417110 514.880127,46.417110 520.943298,46.417110 
	C520.943298,50.332565 520.935791,54.246426 520.945068,58.160248 
	C520.957336,63.323875 520.823608,68.494194 521.041565,73.649422 
	C521.333252,80.550369 524.733887,83.893394 531.142212,83.995758 
	C538.010620,84.105484 541.700134,80.932297 541.930420,73.857452 
	C542.222229,64.895485 542.000977,55.916817 542.000977,46.581108 
	C547.808044,46.581108 553.184875,46.581108 558.805908,46.581108 
	C558.805908,64.305626 558.805908,81.886993 558.805908,99.848030 
	C547.629211,99.848030 536.459656,100.593399 525.469788,99.512405 
	C520.478760,99.021484 515.843628,94.912437 510.807434,92.173668 
z"/>
<path fill="#001838" opacity="1.000000" stroke="none" 
	d="
M788.941040,117.944489 
	C778.119690,122.924179 767.749573,128.060089 757.015259,132.266830 
	C754.298462,133.331573 750.064392,132.169662 747.142822,130.757782 
	C738.509277,126.585594 730.181641,121.779907 721.738098,117.215157 
	C715.766785,113.986946 712.817993,108.956505 712.973816,102.184502 
	C713.064758,98.226974 713.336548,94.273605 713.566101,89.507042 
	C715.744324,90.319870 717.410583,90.793449 718.944885,91.538681 
	C727.742188,95.811607 736.627380,99.926384 745.243835,104.540939 
	C751.233276,107.748566 756.723206,107.688553 762.664795,104.552086 
	C771.021301,100.140884 779.574524,96.101494 788.059937,91.936256 
	C789.660889,91.150414 791.337891,90.519463 794.172729,89.306664 
	C792.739136,99.476082 797.309692,109.495255 788.941040,117.944489 
z"/>
<path fill="#001838" opacity="1.000000" stroke="none" 
	d="
M385.897583,81.403183 
	C390.736847,85.962830 395.444794,89.415894 402.680847,84.769890 
	C400.694092,83.700554 399.158173,82.688019 397.487030,82.007919 
	C391.535614,79.586006 385.459808,77.455513 379.581696,74.872040 
	C374.399506,72.594421 370.975098,68.839340 370.946381,62.680813 
	C370.917511,56.490246 373.820435,52.162331 379.219574,49.614243 
	C390.584747,44.250523 401.972809,44.450146 413.079773,50.376003 
	C418.556335,53.297878 420.959351,58.187885 420.888336,65.012444 
	C416.047913,65.012444 411.275879,65.210258 406.538940,64.889351 
	C405.155975,64.795662 403.737122,63.372475 402.568298,62.303337 
	C397.927795,58.058594 395.540802,57.873848 389.712250,61.783169 
	C395.882568,64.570564 401.891815,67.233032 407.851593,70.002014 
	C410.392883,71.182724 412.947479,72.405045 415.294952,73.920044 
	C424.465515,79.838478 424.421326,90.833786 414.730469,95.934448 
	C402.305603,102.474098 389.457886,101.744598 377.109497,95.403755 
	C372.082001,92.822174 370.766815,88.918274 370.933014,81.142426 
	C375.784760,81.142426 380.679993,81.142426 385.897583,81.403183 
z"/>
<path fill="#001838" opacity="1.000000" stroke="none" 
	d="
M328.048096,82.142441 
	C331.274872,82.874809 334.164856,83.982170 337.005615,83.867645 
	C342.293152,83.654449 344.764404,80.610428 345.039886,75.030182 
	C345.506592,65.575645 345.948364,56.119873 346.416595,46.329960 
	C351.272247,46.329960 356.326141,46.329960 361.674377,46.329960 
	C361.674377,64.294662 361.674377,82.203590 361.674377,100.016037 
	C350.956848,100.016037 340.255005,100.612984 329.648834,99.860878 
	C317.147217,98.974358 308.120361,88.548012 307.969574,76.132576 
	C307.856293,66.804077 307.904297,57.473587 307.891968,48.143963 
	C307.891327,47.655216 307.997955,47.166325 308.131409,46.015686 
	C312.166687,46.015686 316.332458,45.576519 320.311676,46.246048 
	C321.769226,46.491295 323.729858,49.307877 323.834717,51.049393 
	C324.244507,57.855583 323.601746,64.734550 324.168884,71.518028 
	C324.466187,75.073952 326.460907,78.487976 328.048096,82.142441 
z"/>
<path fill="transparent" opacity="1.000000" stroke="none" 
	d="
M598.160400,85.543259 
	C591.621765,86.681343 586.626465,84.765648 583.402710,79.291306 
	C580.823730,74.911888 581.519958,68.697739 584.693726,64.778648 
	C588.118591,60.549496 594.067200,58.720490 599.028992,60.370960 
	C604.357849,62.143532 608.086975,67.257820 608.098877,72.809807 
	C608.110657,78.302315 604.352783,83.216400 598.160400,85.543259 
z"/>
<path fill="transparent" opacity="1.000000" stroke="none" 
	d="
M258.310242,70.509087 
	C261.556000,61.801052 264.058960,59.952446 272.184082,60.000477 
	C279.292145,60.042492 283.480713,64.013954 284.446869,71.627693 
	C285.258087,78.020424 280.795044,83.910217 273.775787,85.710236 
	C268.533966,87.054451 261.126404,83.075203 259.319641,77.685341 
	C258.596893,75.529350 258.531158,73.153122 258.310242,70.509087 
z"/>
<path fill="transparent" opacity="1.000000" stroke="none" 
	d="
M112.938721,62.822853 
	C117.152931,59.746578 121.347130,59.146187 125.896729,60.849567 
	C133.236282,63.597511 136.893646,71.208473 133.892517,77.578041 
	C130.460342,84.862442 122.132225,87.765419 115.176231,84.102051 
	C107.774010,80.203682 105.811211,72.719643 110.391983,65.695107 
	C111.019051,64.733505 111.872757,63.919693 112.938721,62.822853 
z"/>
</svg>