<svg version="1.1" id="Layer_1" xmlns="http://www.w3.org/2000/svg" xmlns:xlink="http://www.w3.org/1999/xlink" x="0px" y="0px"
	 width="100%" viewBox="0 0 222 188" enable-background="new 0 0 222 188" xml:space="preserve">
<path fill="#98c5e9" opacity="1.000000" stroke="none" 
	d="
M151.000000,189.000000 
	C100.666672,189.000000 50.833340,189.000000 1.000007,189.000000 
	C1.000005,126.333344 1.000005,63.666679 1.000002,1.000015 
	C74.999992,1.000010 148.999985,1.000010 222.999969,1.000005 
	C222.999985,63.666653 222.999985,126.333305 223.000000,188.999969 
	C199.166672,189.000000 175.333328,189.000000 151.000000,189.000000 
M23.804340,77.697678 
	C29.518127,80.761070 35.253067,83.785858 40.938202,86.901527 
	C44.673199,88.948456 47.132019,91.938034 47.107685,96.425735 
	C47.033604,110.087318 47.175381,123.759094 46.622494,137.402161 
	C46.496887,140.501648 44.706749,144.850189 42.294037,146.279343 
	C36.414345,149.762131 36.291561,154.317596 37.287693,159.844086 
	C51.272842,157.478241 56.136890,152.637970 57.565178,139.769730 
	C57.766800,137.953232 57.819088,136.112549 57.822380,134.282867 
	C57.844151,122.187317 57.833633,110.091728 57.833633,97.256432 
	C60.223415,98.270622 61.896091,98.883324 63.483086,99.669075 
	C78.379417,107.044594 93.361404,114.256989 108.103317,121.930206 
	C115.130325,125.587791 121.371063,125.450836 128.376160,121.717201 
	C157.274124,106.314980 186.357346,91.260422 215.361252,76.056656 
	C217.451035,74.961197 219.450775,73.694023 222.048767,72.183113 
	C190.580215,55.494572 159.938934,39.194004 129.242035,22.998869 
	C120.904343,18.600054 112.768005,19.458061 104.502907,23.932451 
	C75.409012,39.682701 46.179550,55.182495 17.011265,70.795509 
	C16.214560,71.221954 15.528478,71.855072 14.536310,72.576996 
	C17.648045,74.270020 20.419809,75.778069 23.804340,77.697678 
M134.366730,132.907410 
	C123.876877,140.082474 113.679352,139.635208 102.807442,133.056244 
	C94.178467,127.834557 84.734619,123.954575 75.624100,119.537613 
	C73.752678,118.630310 71.754959,117.983498 68.836861,116.829681 
	C68.836861,122.872604 68.872223,128.005066 68.828568,133.136841 
	C68.763191,140.822388 72.020905,146.681808 78.713913,150.360413 
	C89.623268,156.356400 100.497208,162.461365 111.728348,167.800385 
	C115.135803,169.420197 120.193344,170.039841 123.596359,168.748734 
	C135.211533,164.341934 146.481125,158.997986 157.767181,153.762863 
	C162.302322,151.659225 166.164536,148.045959 166.541031,142.983109 
	C167.160721,134.650360 166.709076,126.237930 166.709076,116.923309 
	C155.766174,122.327782 145.400223,127.447311 134.366730,132.907410 
z"/>
<path fill="#001838" opacity="1.000000" stroke="none" 
	d="
M23.497957,77.491898 
	C20.419809,75.778069 17.648045,74.270020 14.536310,72.576996 
	C15.528478,71.855072 16.214560,71.221954 17.011265,70.795509 
	C46.179550,55.182495 75.409012,39.682701 104.502907,23.932451 
	C112.768005,19.458061 120.904343,18.600054 129.242035,22.998869 
	C159.938934,39.194004 190.580215,55.494572 222.048767,72.183113 
	C219.450775,73.694023 217.451035,74.961197 215.361252,76.056656 
	C186.357346,91.260422 157.274124,106.314980 128.376160,121.717201 
	C121.371063,125.450836 115.130325,125.587791 108.103317,121.930206 
	C93.361404,114.256989 78.379417,107.044594 63.483086,99.669075 
	C61.896091,98.883324 60.223415,98.270622 57.833633,97.256432 
	C57.833633,110.091728 57.844151,122.187317 57.822380,134.282867 
	C57.819088,136.112549 57.766800,137.953232 57.565178,139.769730 
	C56.136890,152.637970 51.272842,157.478241 37.287693,159.844086 
	C36.291561,154.317596 36.414345,149.762131 42.294037,146.279343 
	C44.706749,144.850189 46.496887,140.501648 46.622494,137.402161 
	C47.175381,123.759094 47.033604,110.087318 47.107685,96.425735 
	C47.132019,91.938034 44.673199,88.948456 40.938202,86.901527 
	C35.253067,83.785858 29.518127,80.761070 23.497957,77.491898 
z"/>
<path fill="#001838" opacity="1.000000" stroke="none" 
	d="
M134.700500,132.737122 
	C145.400223,127.447311 155.766174,122.327782 166.709076,116.923309 
	C166.709076,126.237930 167.160721,134.650360 166.541031,142.983109 
	C166.164536,148.045959 162.302322,151.659225 157.767181,153.762863 
	C146.481125,158.997986 135.211533,164.341934 123.596359,168.748734 
	C120.193344,170.039841 115.135803,169.420197 111.728348,167.800385 
	C100.497208,162.461365 89.623268,156.356400 78.713913,150.360413 
	C72.020905,146.681808 68.763191,140.822388 68.828568,133.136841 
	C68.872223,128.005066 68.836861,122.872604 68.836861,116.829681 
	C71.754959,117.983498 73.752678,118.630310 75.624100,119.537613 
	C84.734619,123.954575 94.178467,127.834557 102.807442,133.056244 
	C113.679352,139.635208 123.876877,140.082474 134.700500,132.737122 
z"/>
</svg>