<svg version="1.1" id="Layer_1" xmlns="http://www.w3.org/2000/svg" xmlns:xlink="http://www.w3.org/1999/xlink" x="0px" y="0px"
	 width="100%" viewBox="0 0 839 142" enable-background="new 0 0 839 142" xml:space="preserve">
<path fill="#FEFEFE" opacity="1.000000" stroke="none" 
	d="
M623.000000,143.000000 
	C415.333344,143.000000 208.166672,143.000000 1.000000,143.000000 
	C1.000000,95.666664 1.000000,48.333332 1.000000,1.000000 
	C280.666656,1.000000 560.333313,1.000000 840.000000,1.000000 
	C840.000000,48.333332 840.000000,95.666664 840.000000,143.000000 
	C767.833313,143.000000 695.666687,143.000000 623.000000,143.000000 
M784.683533,23.829292 
	C777.685852,19.973083 770.743469,16.011883 763.674500,12.291167 
	C757.045410,8.802019 750.233521,7.536637 743.175598,11.360431 
	C724.477722,21.490530 705.761475,31.587049 687.023193,41.642212 
	C680.796326,44.983555 674.480286,48.158627 667.265625,51.896393 
	C675.098267,56.132343 681.989014,60.041702 689.054138,63.605419 
	C692.782349,65.485939 694.583801,68.220871 694.549255,72.269035 
	C694.452637,83.589134 694.512085,94.916626 694.051208,106.222504 
	C693.957336,108.525986 692.380493,112.049385 690.588196,112.767914 
	C684.752625,115.107430 685.702393,119.315186 686.176819,123.765739 
	C698.389954,121.788895 702.782349,116.875298 703.144714,104.864662 
	C703.240051,101.703049 703.207764,98.537201 703.211304,95.373276 
	C703.219543,87.954147 703.213928,80.535004 703.213928,72.221985 
	C706.225037,73.571815 708.319336,74.429329 710.342346,75.430862 
	C722.549622,81.474464 734.772644,87.487801 746.918945,93.652016 
	C750.983887,95.714981 754.585815,95.640144 758.694214,93.466103 
	C783.653198,80.258461 808.718994,67.252548 833.742126,54.165993 
	C834.935181,53.542042 836.062439,52.792316 837.896301,51.697689 
	C819.804626,42.225163 802.570984,33.201912 784.683533,23.829292 
M476.583527,93.596489 
	C476.583527,95.214607 476.583527,96.832726 476.583527,98.463760 
	C483.084534,98.463760 488.968964,98.463760 494.838318,98.463760 
	C494.838318,74.336098 494.838318,50.587872 494.838318,26.847301 
	C488.649841,26.847301 482.778931,26.847301 476.486328,26.847301 
	C476.486328,36.054230 476.486328,44.825283 476.486328,53.849724 
	C466.494507,53.849724 456.938568,53.849724 446.864807,53.849724 
	C446.864807,44.682655 446.864807,35.782681 446.864807,26.814522 
	C440.634094,26.814522 434.930542,26.814522 429.322388,26.814522 
	C429.322388,50.972610 429.322388,74.719475 429.322388,98.476944 
	C435.373169,98.476944 441.096863,98.476944 447.211121,98.476944 
	C447.211121,89.517754 447.211121,80.920898 447.211121,72.203064 
	C457.059052,72.203064 466.503571,72.203064 476.592438,72.203064 
	C476.592438,79.157867 476.592438,85.936821 476.583527,93.596489 
M59.124390,27.176332 
	C53.046009,26.565998 46.816261,24.797518 40.918396,25.568357 
	C24.952345,27.655092 14.031317,36.884609 9.365308,52.360622 
	C4.934868,67.055321 8.422639,80.161484 20.073103,90.423447 
	C32.119473,101.034134 46.102665,103.756706 60.965176,97.636314 
	C73.716873,92.385155 81.797638,82.764877 84.202324,68.123871 
	C81.976738,68.123871 80.321594,68.296638 78.713585,68.094505 
	C70.997726,67.124596 65.047661,68.672615 60.214172,75.965370 
	C55.563503,82.982285 45.666462,84.307060 38.112408,80.867966 
	C30.544340,77.422493 25.744886,69.235016 26.498346,61.055332 
	C27.271278,52.664257 32.550823,46.234024 40.761223,43.683826 
	C48.089245,41.407703 56.413952,44.183582 61.816193,50.496223 
	C63.260757,52.184231 65.039452,54.568562 66.864471,54.763512 
	C72.220871,55.335690 77.677727,54.967339 83.639771,54.967339 
	C80.561913,40.903900 72.072411,32.579609 59.124390,27.176332 
M195.670990,98.849014 
	C197.947952,98.849014 200.224915,98.849014 202.970688,98.849014 
	C202.970688,89.309280 202.897263,80.359215 203.021484,71.411896 
	C203.053146,69.131783 203.044724,66.383118 204.247055,64.702988 
	C205.832458,62.487556 208.810684,59.505077 210.797531,59.772232 
	C213.483231,60.133358 216.589859,62.812050 218.045166,65.342300 
	C219.498520,67.869125 219.443008,71.432137 219.513565,74.553009 
	C219.693024,82.490059 219.573242,90.433884 219.573242,98.579956 
	C224.845703,98.579956 229.406311,98.579956 233.792252,98.579956 
	C233.792252,85.877548 234.643860,73.369225 233.522400,61.040375 
	C232.627655,51.203903 225.321472,45.985638 215.353088,44.906891 
	C207.585327,44.066292 201.523621,47.225960 196.414673,52.567772 
	C186.780212,44.992920 186.781250,45.002628 173.153229,46.451099 
	C172.375031,46.533813 171.559479,46.239853 170.758865,46.140968 
	C166.134949,45.569839 161.510284,45.004654 156.830780,44.430702 
	C156.830780,63.273407 156.830780,80.953209 156.830780,98.513992 
	C161.717911,98.513992 166.141403,98.513992 170.993729,98.513992 
	C170.993729,90.727623 170.733078,83.254189 171.100250,75.811737 
	C171.292862,71.907372 171.964706,67.764809 173.602783,64.286835 
	C174.672119,62.016434 177.822571,59.465755 180.118912,59.389378 
	C182.400284,59.313499 185.794373,61.673862 186.881241,63.867321 
	C188.573807,67.283127 189.242584,71.436676 189.426285,75.321037 
	C189.792648,83.068016 189.534851,90.844505 189.534851,98.848663 
	C191.818314,98.848663 193.297623,98.848663 195.670990,98.849014 
M597.100403,45.058434 
	C591.682373,45.540771 586.264343,46.023109 580.306580,46.553505 
	C580.306580,40.016655 580.306580,33.454048 580.306580,26.656305 
	C575.339478,26.656305 570.916931,26.656305 566.246338,26.656305 
	C566.246338,50.840519 566.246338,74.763611 566.246338,99.300468 
	C569.960999,99.300468 573.563171,99.364014 577.162231,99.283257 
	C581.050110,99.196014 585.009766,98.406273 588.808533,98.906700 
	C607.446655,101.362000 622.833984,88.177460 622.073914,70.096642 
	C621.563538,57.953819 612.396057,48.486435 597.100403,45.058434 
M291.211792,53.299164 
	C285.236847,46.999798 277.831604,44.127449 269.237885,44.413456 
	C260.391998,44.707851 251.552933,45.207226 242.140259,45.643349 
	C242.140259,67.228798 242.099503,90.016769 242.262695,112.803284 
	C242.270706,113.921829 243.976379,115.881004 245.037003,115.986534 
	C248.917313,116.372604 252.859238,116.139343 257.250580,116.139343 
	C257.250580,109.100334 257.250580,102.743858 257.250580,96.283768 
	C274.882507,100.898705 286.993835,97.330490 294.266998,85.651817 
	C300.696198,75.328308 299.705627,63.031033 291.211792,53.299164 
M135.346237,45.637527 
	C131.837906,45.658791 128.151108,46.399353 124.851189,45.580620 
	C107.774147,41.343700 89.374405,58.149933 92.451103,75.456795 
	C95.391586,91.997459 110.066841,101.822456 126.796799,98.468361 
	C128.888046,98.049095 131.044281,97.253525 133.090897,97.452034 
	C137.960953,97.924385 142.783371,98.887810 147.567749,99.643791 
	C147.567749,80.603851 147.567749,62.906342 147.567749,45.450516 
	C143.479492,45.450516 139.841827,45.450516 135.346237,45.637527 
M557.995056,63.500725 
	C557.995056,57.550007 557.995056,51.599285 557.995056,45.433136 
	C552.278931,45.433136 547.066833,45.433136 541.336121,45.433136 
	C541.336121,47.370098 541.331787,48.997746 541.336914,50.625359 
	C541.355164,56.455177 541.407227,62.285076 541.390381,68.114784 
	C541.358459,79.157028 538.531738,83.097313 530.689270,83.126724 
	C522.635742,83.156921 519.755066,79.303299 519.686340,68.362160 
	C519.665466,65.031029 519.704224,61.699543 519.707764,58.368214 
	C519.712280,54.094475 519.708923,49.820732 519.708923,45.429504 
	C513.815002,45.429504 508.583405,45.429504 502.993866,45.429504 
	C502.993866,54.362972 502.971252,62.996288 502.998657,71.629448 
	C503.052612,88.618774 514.003296,99.338959 530.937195,99.143005 
	C539.800049,99.040451 548.665039,99.124908 557.994934,99.124908 
	C557.994934,87.757126 557.994934,76.128822 557.995056,63.500725 
M760.800110,129.315659 
	C768.131165,126.159325 775.471985,123.025482 782.789917,119.839020 
	C787.942383,117.595512 792.180481,114.245850 792.583191,108.273598 
	C793.013000,101.900223 792.679993,95.475410 792.679993,88.559891 
	C790.822327,89.342758 789.304077,89.895378 787.862549,90.604271 
	C778.475830,95.220703 769.064270,99.789940 759.747986,104.545410 
	C755.260010,106.836327 751.096191,107.052094 746.485596,104.680145 
	C736.432617,99.508347 726.213928,94.658218 716.047058,89.709145 
	C715.084229,89.240448 714.009583,89.001480 712.708618,88.561829 
	C712.529968,92.479607 712.489380,95.932846 712.191956,99.363815 
	C711.554688,106.716194 714.054626,112.485924 720.631042,116.085068 
	C728.652710,120.475143 736.916504,124.439674 744.801697,129.056168 
	C750.002686,132.101181 754.855530,133.087250 760.800110,129.315659 
M350.612335,45.141998 
	C348.843719,45.141998 347.075134,45.141998 344.995483,45.141998 
	C344.995483,48.723400 345.067688,51.698296 344.980927,54.668545 
	C344.777435,61.636425 344.820007,68.633865 344.136932,75.557571 
	C343.673767,80.252419 340.304626,82.659439 335.560577,83.039429 
	C327.514252,83.683960 323.229919,80.016869 323.070557,71.931854 
	C322.919647,64.275169 323.177063,56.609177 322.947693,48.956482 
	C322.907257,47.606869 321.446564,45.237862 320.488953,45.157368 
	C315.773743,44.761028 311.007019,44.977249 306.793396,44.977249 
	C306.793396,55.467510 306.547455,65.266396 306.849030,75.048393 
	C307.344696,91.125984 321.875885,102.509697 340.665405,98.738739 
	C344.307800,98.007729 348.198395,98.295204 351.960602,98.450211 
	C354.867493,98.569984 357.752625,99.217361 360.749481,99.644722 
	C360.749481,81.354713 360.749481,63.458927 360.749481,45.142303 
	C357.488525,45.142303 354.526276,45.142303 350.612335,45.141998 
M399.456146,81.976822 
	C400.335114,82.602211 401.214081,83.227600 402.251465,83.965683 
	C394.869720,87.706367 391.423859,87.042198 385.971252,81.238960 
	C385.361450,80.589996 384.358154,79.957672 383.520416,79.934669 
	C378.920868,79.808403 374.316071,79.874420 369.754211,79.874420 
	C369.348175,85.647835 370.534363,90.036430 374.722900,93.417336 
	C383.698456,100.662224 405.789734,101.160774 415.021545,94.208389 
	C422.998535,88.201004 422.886566,78.369263 414.476776,73.057533 
	C410.290192,70.413246 405.643616,68.470352 401.121582,66.391945 
	C396.847656,64.427605 392.464325,62.701286 387.740631,60.706196 
	C395.135437,56.380692 397.704834,56.823215 402.901031,62.702534 
	C403.488708,63.367462 404.411072,64.137482 405.197968,64.159760 
	C409.971436,64.294884 414.750610,64.227112 419.690704,64.227112 
	C420.087219,57.245037 417.457245,52.346767 411.857849,49.341568 
	C401.392700,43.724930 390.532898,43.343910 379.637268,48.004341 
	C374.114380,50.366650 370.331146,54.358780 370.001556,60.777576 
	C369.664246,67.347664 373.321289,71.526260 378.815308,73.965294 
	C385.319794,76.852928 392.102783,79.113304 399.456146,81.976822 
z"/>
<path fill="#64251B" opacity="1.000000" stroke="none" 
	d="
M785.010498,24.003979 
	C802.570984,33.201912 819.804626,42.225163 837.896301,51.697689 
	C836.062439,52.792316 834.935181,53.542042 833.742126,54.165993 
	C808.718994,67.252548 783.653198,80.258461 758.694214,93.466103 
	C754.585815,95.640144 750.983887,95.714981 746.918945,93.652016 
	C734.772644,87.487801 722.549622,81.474464 710.342346,75.430862 
	C708.319336,74.429329 706.225037,73.571815 703.213928,72.221985 
	C703.213928,80.535004 703.219543,87.954147 703.211304,95.373276 
	C703.207764,98.537201 703.240051,101.703049 703.144714,104.864662 
	C702.782349,116.875298 698.389954,121.788895 686.176819,123.765739 
	C685.702393,119.315186 684.752625,115.107430 690.588196,112.767914 
	C692.380493,112.049385 693.957336,108.525986 694.051208,106.222504 
	C694.512085,94.916626 694.452637,83.589134 694.549255,72.269035 
	C694.583801,68.220871 692.782349,65.485939 689.054138,63.605419 
	C681.989014,60.041702 675.098267,56.132343 667.265625,51.896393 
	C674.480286,48.158627 680.796326,44.983555 687.023193,41.642212 
	C705.761475,31.587049 724.477722,21.490530 743.175598,11.360431 
	C750.233521,7.536637 757.045410,8.802019 763.674500,12.291167 
	C770.743469,16.011883 777.685852,19.973083 785.010498,24.003979 
z"/>
<path fill="#65251B" opacity="1.000000" stroke="none" 
	d="
M476.587982,93.156128 
	C476.592438,85.936821 476.592438,79.157867 476.592438,72.203064 
	C466.503571,72.203064 457.059052,72.203064 447.211121,72.203064 
	C447.211121,80.920898 447.211121,89.517754 447.211121,98.476944 
	C441.096863,98.476944 435.373169,98.476944 429.322388,98.476944 
	C429.322388,74.719475 429.322388,50.972610 429.322388,26.814522 
	C434.930542,26.814522 440.634094,26.814522 446.864807,26.814522 
	C446.864807,35.782681 446.864807,44.682655 446.864807,53.849724 
	C456.938568,53.849724 466.494507,53.849724 476.486328,53.849724 
	C476.486328,44.825283 476.486328,36.054230 476.486328,26.847301 
	C482.778931,26.847301 488.649841,26.847301 494.838318,26.847301 
	C494.838318,50.587872 494.838318,74.336098 494.838318,98.463760 
	C488.968964,98.463760 483.084534,98.463760 476.583527,98.463760 
	C476.583527,96.832726 476.583527,95.214607 476.587982,93.156128 
z"/>
<path fill="#66281F" opacity="1.000000" stroke="none" 
	d="
M59.485916,27.329056 
	C72.072411,32.579609 80.561913,40.903900 83.639771,54.967339 
	C77.677727,54.967339 72.220871,55.335690 66.864471,54.763512 
	C65.039452,54.568562 63.260757,52.184231 61.816193,50.496223 
	C56.413952,44.183582 48.089245,41.407703 40.761223,43.683826 
	C32.550823,46.234024 27.271278,52.664257 26.498346,61.055332 
	C25.744886,69.235016 30.544340,77.422493 38.112408,80.867966 
	C45.666462,84.307060 55.563503,82.982285 60.214172,75.965370 
	C65.047661,68.672615 70.997726,67.124596 78.713585,68.094505 
	C80.321594,68.296638 81.976738,68.123871 84.202324,68.123871 
	C81.797638,82.764877 73.716873,92.385155 60.965176,97.636314 
	C46.102665,103.756706 32.119473,101.034134 20.073103,90.423447 
	C8.422639,80.161484 4.934868,67.055321 9.365308,52.360622 
	C14.031317,36.884609 24.952345,27.655092 40.918396,25.568357 
	C46.816261,24.797518 53.046009,26.565998 59.485916,27.329056 
z"/>
<path fill="#68291F" opacity="1.000000" stroke="none" 
	d="
M195.223953,98.848839 
	C193.297623,98.848663 191.818314,98.848663 189.534851,98.848663 
	C189.534851,90.844505 189.792648,83.068016 189.426285,75.321037 
	C189.242584,71.436676 188.573807,67.283127 186.881241,63.867321 
	C185.794373,61.673862 182.400284,59.313499 180.118912,59.389378 
	C177.822571,59.465755 174.672119,62.016434 173.602783,64.286835 
	C171.964706,67.764809 171.292862,71.907372 171.100250,75.811737 
	C170.733078,83.254189 170.993729,90.727623 170.993729,98.513992 
	C166.141403,98.513992 161.717911,98.513992 156.830780,98.513992 
	C156.830780,80.953209 156.830780,63.273407 156.830780,44.430702 
	C161.510284,45.004654 166.134949,45.569839 170.758865,46.140968 
	C171.559479,46.239853 172.375031,46.533813 173.153229,46.451099 
	C186.781250,45.002628 186.780212,44.992920 196.414673,52.567772 
	C201.523621,47.225960 207.585327,44.066292 215.353088,44.906891 
	C225.321472,45.985638 232.627655,51.203903 233.522400,61.040375 
	C234.643860,73.369225 233.792252,85.877548 233.792252,98.579956 
	C229.406311,98.579956 224.845703,98.579956 219.573242,98.579956 
	C219.573242,90.433884 219.693024,82.490059 219.513565,74.553009 
	C219.443008,71.432137 219.498520,67.869125 218.045166,65.342300 
	C216.589859,62.812050 213.483231,60.133358 210.797531,59.772232 
	C208.810684,59.505077 205.832458,62.487556 204.247055,64.702988 
	C203.044724,66.383118 203.053146,69.131783 203.021484,71.411896 
	C202.897263,80.359215 202.970688,89.309280 202.970688,98.849014 
	C200.224915,98.849014 197.947952,98.849014 195.223953,98.848839 
z"/>
<path fill="#66271E" opacity="1.000000" stroke="none" 
	d="
M597.531738,45.127724 
	C612.396057,48.486435 621.563538,57.953819 622.073914,70.096642 
	C622.833984,88.177460 607.446655,101.362000 588.808533,98.906700 
	C585.009766,98.406273 581.050110,99.196014 577.162231,99.283257 
	C573.563171,99.364014 569.960999,99.300468 566.246338,99.300468 
	C566.246338,74.763611 566.246338,50.840519 566.246338,26.656305 
	C570.916931,26.656305 575.339478,26.656305 580.306580,26.656305 
	C580.306580,33.454048 580.306580,40.016655 580.306580,46.553505 
	C586.264343,46.023109 591.682373,45.540771 597.531738,45.127724 
M599.851013,83.742584 
	C606.416931,78.899536 608.558960,73.621582 606.390930,67.628288 
	C603.923645,60.807976 596.492065,57.150463 589.890076,59.507347 
	C582.991455,61.970131 579.239685,69.205025 581.389587,75.899666 
	C583.730164,83.188072 591.145874,86.585861 599.851013,83.742584 
z"/>
<path fill="#682B21" opacity="1.000000" stroke="none" 
	d="
M291.457336,53.559795 
	C299.705627,63.031033 300.696198,75.328308 294.266998,85.651817 
	C286.993835,97.330490 274.882507,100.898705 257.250580,96.283768 
	C257.250580,102.743858 257.250580,109.100334 257.250580,116.139343 
	C252.859238,116.139343 248.917313,116.372604 245.037003,115.986534 
	C243.976379,115.881004 242.270706,113.921829 242.262695,112.803284 
	C242.099503,90.016769 242.140259,67.228798 242.140259,45.643349 
	C251.552933,45.207226 260.391998,44.707851 269.237885,44.413456 
	C277.831604,44.127449 285.236847,46.999798 291.457336,53.559795 
M257.139496,70.654892 
	C257.453003,72.443718 257.585846,74.287758 258.112579,76.011436 
	C259.998138,82.181740 267.456970,86.123184 273.599518,84.310432 
	C280.848877,82.171059 284.919800,75.556168 283.132263,68.820618 
	C281.389984,62.255573 277.764832,59.101620 271.847992,59.003021 
	C263.038544,58.856220 259.868042,61.211922 257.139496,70.654892 
z"/>
<path fill="#67281F" opacity="1.000000" stroke="none" 
	d="
M135.775208,45.544022 
	C139.841827,45.450516 143.479492,45.450516 147.567749,45.450516 
	C147.567749,62.906342 147.567749,80.603851 147.567749,99.643791 
	C142.783371,98.887810 137.960953,97.924385 133.090897,97.452034 
	C131.044281,97.253525 128.888046,98.049095 126.796799,98.468361 
	C110.066841,101.822456 95.391586,91.997459 92.451103,75.456795 
	C89.374405,58.149933 107.774147,41.343700 124.851189,45.580620 
	C128.151108,46.399353 131.837906,45.658791 135.775208,45.544022 
M115.915894,83.880981 
	C117.226097,84.116150 118.527534,84.435959 119.847939,84.572548 
	C127.513298,85.365532 135.248581,77.318176 133.781876,70.112358 
	C132.457458,63.605640 127.008331,59.127544 120.272926,59.010658 
	C114.070564,58.903030 108.615822,63.414242 107.177025,69.841331 
	C105.908379,75.508331 108.778687,80.470490 115.915894,83.880981 
z"/>
<path fill="#682920" opacity="1.000000" stroke="none" 
	d="
M557.994995,64.000618 
	C557.994934,76.128822 557.994934,87.757126 557.994934,99.124908 
	C548.665039,99.124908 539.800049,99.040451 530.937195,99.143005 
	C514.003296,99.338959 503.052612,88.618774 502.998657,71.629448 
	C502.971252,62.996288 502.993866,54.362972 502.993866,45.429504 
	C508.583405,45.429504 513.815002,45.429504 519.708923,45.429504 
	C519.708923,49.820732 519.712280,54.094475 519.707764,58.368214 
	C519.704224,61.699543 519.665466,65.031029 519.686340,68.362160 
	C519.755066,79.303299 522.635742,83.156921 530.689270,83.126724 
	C538.531738,83.097313 541.358459,79.157028 541.390381,68.114784 
	C541.407227,62.285076 541.355164,56.455177 541.336914,50.625359 
	C541.331787,48.997746 541.336121,47.370098 541.336121,45.433136 
	C547.066833,45.433136 552.278931,45.433136 557.995056,45.433136 
	C557.995056,51.599285 557.995056,57.550007 557.994995,64.000618 
z"/>
<path fill="#67281E" opacity="1.000000" stroke="none" 
	d="
M760.456177,129.499100 
	C754.855530,133.087250 750.002686,132.101181 744.801697,129.056168 
	C736.916504,124.439674 728.652710,120.475143 720.631042,116.085068 
	C714.054626,112.485924 711.554688,106.716194 712.191956,99.363815 
	C712.489380,95.932846 712.529968,92.479607 712.708618,88.561829 
	C714.009583,89.001480 715.084229,89.240448 716.047058,89.709145 
	C726.213928,94.658218 736.432617,99.508347 746.485596,104.680145 
	C751.096191,107.052094 755.260010,106.836327 759.747986,104.545410 
	C769.064270,99.789940 778.475830,95.220703 787.862549,90.604271 
	C789.304077,89.895378 790.822327,89.342758 792.679993,88.559891 
	C792.679993,95.475410 793.013000,101.900223 792.583191,108.273598 
	C792.180481,114.245850 787.942383,117.595512 782.789917,119.839020 
	C775.471985,123.025482 768.131165,126.159325 760.456177,129.499100 
z"/>
<path fill="#67281E" opacity="1.000000" stroke="none" 
	d="
M351.088196,45.142151 
	C354.526276,45.142303 357.488525,45.142303 360.749481,45.142303 
	C360.749481,63.458927 360.749481,81.354713 360.749481,99.644722 
	C357.752625,99.217361 354.867493,98.569984 351.960602,98.450211 
	C348.198395,98.295204 344.307800,98.007729 340.665405,98.738739 
	C321.875885,102.509697 307.344696,91.125984 306.849030,75.048393 
	C306.547455,65.266396 306.793396,55.467510 306.793396,44.977249 
	C311.007019,44.977249 315.773743,44.761028 320.488953,45.157368 
	C321.446564,45.237862 322.907257,47.606869 322.947693,48.956482 
	C323.177063,56.609177 322.919647,64.275169 323.070557,71.931854 
	C323.229919,80.016869 327.514252,83.683960 335.560577,83.039429 
	C340.304626,82.659439 343.673767,80.252419 344.136932,75.557571 
	C344.820007,68.633865 344.777435,61.636425 344.980927,54.668545 
	C345.067688,51.698296 344.995483,48.723400 344.995483,45.141998 
	C347.075134,45.141998 348.843719,45.141998 351.088196,45.142151 
z"/>
<path fill="#672A20" opacity="1.000000" stroke="none" 
	d="
M399.110596,81.811188 
	C392.102783,79.113304 385.319794,76.852928 378.815308,73.965294 
	C373.321289,71.526260 369.664246,67.347664 370.001556,60.777576 
	C370.331146,54.358780 374.114380,50.366650 379.637268,48.004341 
	C390.532898,43.343910 401.392700,43.724930 411.857849,49.341568 
	C417.457245,52.346767 420.087219,57.245037 419.690704,64.227112 
	C414.750610,64.227112 409.971436,64.294884 405.197968,64.159760 
	C404.411072,64.137482 403.488708,63.367462 402.901031,62.702534 
	C397.704834,56.823215 395.135437,56.380692 387.740631,60.706196 
	C392.464325,62.701286 396.847656,64.427605 401.121582,66.391945 
	C405.643616,68.470352 410.290192,70.413246 414.476776,73.057533 
	C422.886566,78.369263 422.998535,88.201004 415.021545,94.208389 
	C405.789734,101.160774 383.698456,100.662224 374.722900,93.417336 
	C370.534363,90.036430 369.348175,85.647835 369.754211,79.874420 
	C374.316071,79.874420 378.920868,79.808403 383.520416,79.934669 
	C384.358154,79.957672 385.361450,80.589996 385.971252,81.238960 
	C391.423859,87.042198 394.869720,87.706367 402.251465,83.965683 
	C401.214081,83.227600 400.335114,82.602211 399.110596,81.811188 
z"/>
<path fill="#FDFCFC" opacity="1.000000" stroke="none" 
	d="
M599.478638,83.879929 
	C591.145874,86.585861 583.730164,83.188072 581.389587,75.899666 
	C579.239685,69.205025 582.991455,61.970131 589.890076,59.507347 
	C596.492065,57.150463 603.923645,60.807976 606.390930,67.628288 
	C608.558960,73.621582 606.416931,78.899536 599.478638,83.879929 
z"/>
<path fill="#FDFCFB" opacity="1.000000" stroke="none" 
	d="
M257.181580,70.261917 
	C259.868042,61.211922 263.038544,58.856220 271.847992,59.003021 
	C277.764832,59.101620 281.389984,62.255573 283.132263,68.820618 
	C284.919800,75.556168 280.848877,82.171059 273.599518,84.310432 
	C267.456970,86.123184 259.998138,82.181740 258.112579,76.011436 
	C257.585846,74.287758 257.453003,72.443718 257.181580,70.261917 
z"/>
<path fill="#FCFAFA" opacity="1.000000" stroke="none" 
	d="
M115.542923,83.770203 
	C108.778687,80.470490 105.908379,75.508331 107.177025,69.841331 
	C108.615822,63.414242 114.070564,58.903030 120.272926,59.010658 
	C127.008331,59.127544 132.457458,63.605640 133.781876,70.112358 
	C135.248581,77.318176 127.513298,85.365532 119.847939,84.572548 
	C118.527534,84.435959 117.226097,84.116150 115.542923,83.770203 
z"/>
</svg>